<svg width="150" height="30" viewBox="0 0 150 30" fill="none" xmlns="http://www.w3.org/2000/svg">
<g filter="url(#filter0_b_120_34)">
<path d="M14.466 8.23447C14.0209 7.41844 13.4088 6.79715 12.6299 6.37059C11.851 5.94403 10.9422 5.73075 9.90362 5.73075C8.75376 5.73075 7.73372 5.99039 6.84351 6.50968C5.9533 7.02897 5.25782 7.77082 4.75708 8.73521C4.25633 9.69961 4.00596 10.8124 4.00596 12.0735C4.00596 13.3717 4.25633 14.5031 4.75708 15.4674C5.27637 16.4318 5.99039 17.1737 6.89915 17.693C7.80791 18.2123 8.86504 18.4719 10.0705 18.4719C11.5542 18.4719 12.769 18.0824 13.7148 17.3035C14.6607 16.506 15.282 15.4025 15.5787 13.993H8.90213V11.0164H19.4178V14.4103C19.1581 15.7642 18.6017 17.016 17.7486 18.1659C16.8955 19.3158 15.792 20.2431 14.4381 20.9478C13.1028 21.634 11.6006 21.9771 9.93144 21.9771C8.05828 21.9771 6.36131 21.5598 4.84053 20.7253C3.3383 19.8721 2.15135 18.6945 1.27968 17.1922C0.42656 15.69 0 13.9838 0 12.0735C0 10.1633 0.42656 8.45702 1.27968 6.95479C2.15135 5.43401 3.3383 4.25633 4.84053 3.42176C6.36131 2.56864 8.04901 2.14208 9.90362 2.14208C12.0921 2.14208 13.993 2.67991 15.6065 3.75559C17.2201 4.81271 18.3328 6.30567 18.9448 8.23447H14.466Z" fill="url(#paint0_linear_120_34)"/>
<path d="M27.0563 22.0606C25.5726 22.0606 24.2373 21.736 23.0503 21.0869C21.8634 20.4193 20.9268 19.4827 20.2406 18.2772C19.5729 17.0717 19.2391 15.6807 19.2391 14.1043C19.2391 12.5279 19.5822 11.1369 20.2684 9.93144C20.9732 8.72594 21.9283 7.79864 23.1338 7.14952C24.3393 6.48186 25.6839 6.14803 27.1676 6.14803C28.6513 6.14803 29.9959 6.48186 31.2014 7.14952C32.4068 7.79864 33.3527 8.72594 34.0389 9.93144C34.7437 11.1369 35.096 12.5279 35.096 14.1043C35.096 15.6807 34.7344 17.0717 34.0111 18.2772C33.3063 19.4827 32.3419 20.4193 31.1179 21.0869C29.9124 21.736 28.5585 22.0606 27.0563 22.0606ZM27.0563 18.6667C27.761 18.6667 28.4194 18.4997 29.0315 18.1659C29.662 17.8135 30.1628 17.2942 30.5337 16.608C30.9046 15.9218 31.0901 15.0873 31.0901 14.1043C31.0901 12.6392 30.7006 11.5171 29.9217 10.7382C29.1613 9.94071 28.2247 9.54197 27.1119 9.54197C25.9992 9.54197 25.0626 9.94071 24.3022 10.7382C23.5604 11.5171 23.1894 12.6392 23.1894 14.1043C23.1894 15.5695 23.5511 16.7008 24.2744 17.4982C25.0162 18.2772 25.9435 18.6667 27.0563 18.6667Z" fill="url(#paint1_linear_120_34)"/>
<path d="M47.1133 22.0049C45.7594 22.0049 44.5353 21.7731 43.4411 21.3095C42.3655 20.8458 41.5123 20.1782 40.8818 19.3065C40.2512 18.4348 39.9266 17.4055 39.9081 16.2186H44.081C44.1366 17.016 44.4148 17.6466 44.9155 18.1103C45.4348 18.5739 46.1396 18.8057 47.0298 18.8057C47.9386 18.8057 48.6526 18.5925 49.1719 18.1659C49.6912 17.7208 49.9508 17.1459 49.9508 16.4411C49.9508 15.8662 49.7746 15.3933 49.4222 15.0223C49.0699 14.6514 48.6248 14.364 48.0869 14.1599C47.5676 13.9374 46.8443 13.6963 45.917 13.4366C44.6559 13.0657 43.6266 12.7041 42.8291 12.3517C42.0502 11.9808 41.3732 11.4337 40.7983 10.7104C40.2419 9.96853 39.9637 8.98559 39.9637 7.76154C39.9637 6.61169 40.2512 5.6102 40.8261 4.75707C41.4011 3.90395 42.2078 3.25484 43.2464 2.80973C44.285 2.34608 45.4719 2.11426 46.8072 2.11426C48.8102 2.11426 50.433 2.60573 51.6756 3.58867C52.9367 4.55307 53.6322 5.90693 53.762 7.65027H49.4779C49.4408 6.98261 49.1533 6.4355 48.6155 6.00894C48.0962 5.56383 47.4007 5.34128 46.529 5.34128C45.7687 5.34128 45.1566 5.53601 44.693 5.92548C44.2479 6.31495 44.0253 6.8806 44.0253 7.62245C44.0253 8.14174 44.1922 8.57757 44.5261 8.92995C44.8784 9.26378 45.305 9.54197 45.8058 9.76452C46.325 9.96853 47.0483 10.2096 47.9756 10.4878C49.2368 10.8587 50.2661 11.2297 51.0636 11.6006C51.8611 11.9715 52.5473 12.5279 53.1222 13.2697C53.6971 14.0116 53.9846 14.9853 53.9846 16.1907C53.9846 17.2293 53.7157 18.1937 53.1778 19.0839C52.64 19.9742 51.8518 20.6882 50.8132 21.226C49.7746 21.7453 48.5413 22.0049 47.1133 22.0049Z" fill="url(#paint2_linear_120_34)"/>
<path d="M54.2732 14.1043C54.2732 12.5093 54.5978 11.1184 55.2469 9.93144C55.896 8.72594 56.7955 7.79864 57.9453 7.14952C59.0952 6.48186 60.412 6.14803 61.8957 6.14803C63.8059 6.14803 65.3823 6.63023 66.6249 7.59463C67.886 8.54048 68.7299 9.8758 69.1565 11.6006H64.9558C64.7332 10.9329 64.353 10.4136 63.8152 10.0427C63.2959 9.65324 62.6468 9.45851 61.8678 9.45851C60.7551 9.45851 59.8741 9.86653 59.225 10.6826C58.5759 11.48 58.2513 12.6206 58.2513 14.1043C58.2513 15.5695 58.5759 16.71 59.225 17.5261C59.8741 18.3235 60.7551 18.7223 61.8678 18.7223C63.4443 18.7223 64.4736 18.0175 64.9558 16.608H69.1565C68.7299 18.2772 67.886 19.6032 66.6249 20.5862C65.3638 21.5691 63.7874 22.0606 61.8957 22.0606C60.412 22.0606 59.0952 21.736 57.9453 21.0869C56.7955 20.4193 55.896 19.492 55.2469 18.305C54.5978 17.0995 54.2732 15.6993 54.2732 14.1043Z" fill="url(#paint3_linear_120_34)"/>
<path d="M73.8179 8.79085C74.3186 7.97482 74.9678 7.33498 75.7652 6.87133C76.5813 6.40768 77.5086 6.17585 78.5471 6.17585V10.2653H77.5179C76.2938 10.2653 75.3665 10.5527 74.7359 11.1277C74.1239 11.7026 73.8179 12.7041 73.8179 14.1321V21.8102H69.9232V6.39841H73.8179V8.79085Z" fill="url(#paint4_linear_120_34)"/>
<path d="M81.0591 4.56234C80.3729 4.56234 79.798 4.34906 79.3343 3.9225C78.8892 3.47739 78.6667 2.93028 78.6667 2.28117C78.6667 1.63206 78.8892 1.09422 79.3343 0.667659C79.798 0.222553 80.3729 0 81.0591 0C81.7453 0 82.311 0.222553 82.7561 0.667659C83.2198 1.09422 83.4516 1.63206 83.4516 2.28117C83.4516 2.93028 83.2198 3.47739 82.7561 3.9225C82.311 4.34906 81.7453 4.56234 81.0591 4.56234ZM82.9787 6.39841V21.8102H79.084V6.39841H82.9787Z" fill="url(#paint5_linear_120_34)"/>
<path d="M88.6349 8.62394C89.1356 7.91919 89.8218 7.33498 90.6935 6.87133C91.5837 6.38913 92.5945 6.14803 93.7258 6.14803C95.0425 6.14803 96.2295 6.47259 97.2866 7.1217C98.3623 7.77082 99.2061 8.69812 99.8182 9.90362C100.449 11.0906 100.764 12.4723 100.764 14.0487C100.764 15.6251 100.449 17.0253 99.8182 18.2494C99.2061 19.4549 98.3623 20.3914 97.2866 21.0591C96.2295 21.7268 95.0425 22.0606 93.7258 22.0606C92.5945 22.0606 91.593 21.8288 90.7213 21.3651C89.8682 20.9015 89.1727 20.3173 88.6349 19.6125V29.1545H84.7402V6.39841H88.6349V8.62394ZM96.7859 14.0487C96.7859 13.1214 96.5911 12.3239 96.2017 11.6562C95.8307 10.97 95.33 10.4507 94.6994 10.0984C94.0874 9.74598 93.4198 9.56979 92.6964 9.56979C91.9917 9.56979 91.324 9.75525 90.6935 10.1262C90.0815 10.4785 89.5807 10.9978 89.1912 11.684C88.8203 12.3702 88.6349 13.177 88.6349 14.1043C88.6349 15.0316 88.8203 15.8384 89.1912 16.5246C89.5807 17.2108 90.0815 17.7393 90.6935 18.1103C91.324 18.4626 91.9917 18.6388 92.6964 18.6388C93.4198 18.6388 94.0874 18.4534 94.6994 18.0824C95.33 17.7115 95.8307 17.183 96.2017 16.4968C96.5911 15.8106 96.7859 14.9945 96.7859 14.0487Z" fill="url(#paint6_linear_120_34)"/>
<path d="M106.042 9.59761V17.0531C106.042 17.5724 106.163 17.9526 106.404 18.1937C106.664 18.4163 107.09 18.5276 107.684 18.5276H109.492V21.8102H107.044C103.761 21.8102 102.12 20.2153 102.12 17.0253V9.59761H100.284V6.39841H102.12V2.58718H106.042V6.39841H109.492V9.59761H106.042Z" fill="url(#paint7_linear_120_34)"/>
<path d="M124.756 6.39841V21.8102H120.834V19.8629C120.333 20.5305 119.674 21.0591 118.858 21.4486C118.061 21.8195 117.189 22.0049 116.243 22.0049C115.038 22.0049 113.972 21.7546 113.044 21.2538C112.117 20.7345 111.384 19.9834 110.846 19.0005C110.327 17.999 110.068 16.812 110.068 15.4396V6.39841H113.962V14.8832C113.962 16.1073 114.268 17.0531 114.88 17.7208C115.492 18.3699 116.327 18.6945 117.384 18.6945C118.46 18.6945 119.304 18.3699 119.916 17.7208C120.528 17.0531 120.834 16.1073 120.834 14.8832V6.39841H124.756Z" fill="url(#paint8_linear_120_34)"/>
<path d="M130.407 8.79085C130.908 7.97482 131.557 7.33498 132.354 6.87133C133.17 6.40768 134.098 6.17585 135.136 6.17585V10.2653H134.107C132.883 10.2653 131.956 10.5527 131.325 11.1277C130.713 11.7026 130.407 12.7041 130.407 14.1321V21.8102H126.512V6.39841H130.407V8.79085Z" fill="url(#paint9_linear_120_34)"/>
<path d="M150 13.7705C150 14.3269 149.963 14.8276 149.889 15.2727H138.622C138.715 16.3855 139.104 17.2571 139.79 17.8877C140.477 18.5183 141.32 18.8336 142.322 18.8336C143.768 18.8336 144.798 18.2123 145.41 16.9697H149.611C149.165 18.4534 148.312 19.6774 147.051 20.6418C145.79 21.5877 144.241 22.0606 142.405 22.0606C140.922 22.0606 139.586 21.736 138.399 21.0869C137.231 20.4193 136.313 19.4827 135.645 18.2772C134.996 17.0717 134.672 15.6807 134.672 14.1043C134.672 12.5093 134.996 11.1091 135.645 9.90362C136.294 8.69812 137.203 7.77082 138.372 7.1217C139.54 6.47259 140.885 6.14803 142.405 6.14803C143.871 6.14803 145.178 6.46332 146.328 7.09388C147.496 7.72445 148.396 8.62394 149.026 9.79234C149.675 10.9422 150 12.2682 150 13.7705ZM145.966 12.6577C145.948 11.6562 145.586 10.8587 144.881 10.2653C144.177 9.65325 143.314 9.34724 142.294 9.34724C141.33 9.34724 140.514 9.64397 139.846 10.2374C139.197 10.8124 138.798 11.6191 138.65 12.6577H145.966Z" fill="url(#paint10_linear_120_34)"/>
</g>
<defs>
<filter id="filter0_b_120_34" x="-4" y="-4" width="158" height="37.1544" filterUnits="userSpaceOnUse" color-interpolation-filters="sRGB">
<feFlood flood-opacity="0" result="BackgroundImageFix"/>
<feGaussianBlur in="BackgroundImageFix" stdDeviation="2"/>
<feComposite in2="SourceAlpha" operator="in" result="effect1_backgroundBlur_120_34"/>
<feBlend mode="normal" in="SourceGraphic" in2="effect1_backgroundBlur_120_34" result="shape"/>
</filter>
<linearGradient id="paint0_linear_120_34" x1="75" y1="15" x2="116.743" y2="88.8625" gradientUnits="userSpaceOnUse">
<stop stop-color="#FFF1D8"/>
<stop offset="0.680036" stop-color="#FFFBF3"/>
</linearGradient>
<linearGradient id="paint1_linear_120_34" x1="75" y1="15" x2="116.743" y2="88.8625" gradientUnits="userSpaceOnUse">
<stop stop-color="#FFF1D8"/>
<stop offset="0.680036" stop-color="#FFFBF3"/>
</linearGradient>
<linearGradient id="paint2_linear_120_34" x1="75" y1="15" x2="116.743" y2="88.8625" gradientUnits="userSpaceOnUse">
<stop stop-color="#FFF1D8"/>
<stop offset="0.680036" stop-color="#FFFBF3"/>
</linearGradient>
<linearGradient id="paint3_linear_120_34" x1="75" y1="15" x2="116.743" y2="88.8625" gradientUnits="userSpaceOnUse">
<stop stop-color="#FFF1D8"/>
<stop offset="0.680036" stop-color="#FFFBF3"/>
</linearGradient>
<linearGradient id="paint4_linear_120_34" x1="75" y1="15" x2="116.743" y2="88.8625" gradientUnits="userSpaceOnUse">
<stop stop-color="#FFF1D8"/>
<stop offset="0.680036" stop-color="#FFFBF3"/>
</linearGradient>
<linearGradient id="paint5_linear_120_34" x1="75" y1="15" x2="116.743" y2="88.8625" gradientUnits="userSpaceOnUse">
<stop stop-color="#FFF1D8"/>
<stop offset="0.680036" stop-color="#FFFBF3"/>
</linearGradient>
<linearGradient id="paint6_linear_120_34" x1="75" y1="15" x2="116.743" y2="88.8625" gradientUnits="userSpaceOnUse">
<stop stop-color="#FFF1D8"/>
<stop offset="0.680036" stop-color="#FFFBF3"/>
</linearGradient>
<linearGradient id="paint7_linear_120_34" x1="75" y1="15" x2="116.743" y2="88.8625" gradientUnits="userSpaceOnUse">
<stop stop-color="#FFF1D8"/>
<stop offset="0.680036" stop-color="#FFFBF3"/>
</linearGradient>
<linearGradient id="paint8_linear_120_34" x1="75" y1="15" x2="116.743" y2="88.8625" gradientUnits="userSpaceOnUse">
<stop stop-color="#FFF1D8"/>
<stop offset="0.680036" stop-color="#FFFBF3"/>
</linearGradient>
<linearGradient id="paint9_linear_120_34" x1="75" y1="15" x2="116.743" y2="88.8625" gradientUnits="userSpaceOnUse">
<stop stop-color="#FFF1D8"/>
<stop offset="0.680036" stop-color="#FFFBF3"/>
</linearGradient>
<linearGradient id="paint10_linear_120_34" x1="75" y1="15" x2="116.743" y2="88.8625" gradientUnits="userSpaceOnUse">
<stop stop-color="#FFF1D8"/>
<stop offset="0.680036" stop-color="#FFFBF3"/>
</linearGradient>
</defs>
</svg>
